<?xml version="1.0" encoding="utf-8"?>
<!-- Generator: Adobe Illustrator 18.1.1, SVG Export Plug-In . SVG Version: 6.00 Build 0)  -->
<svg version="1.1" id="Capa_1" xmlns="http://www.w3.org/2000/svg" xmlns:xlink="http://www.w3.org/1999/xlink" x="0px" y="0px"
	 viewBox="0 0 595.3 595.2" enable-background="new 0 0 595.3 595.2" xml:space="preserve">
<g id="Sun">
	<g>
		<path fill="#FFFFFF" d="M102,297.6c0-14.1-11.4-25.5-25.5-25.5h-51C11.4,272.1,0,283.5,0,297.6c0,14.1,11.4,25.5,25.5,25.5h51
			C90.6,323.1,102,311.7,102,297.6z M127.5,442.2c-7.1,0-13.4,2.9-18.1,7.4l-34,34c-4.6,4.7-7.4,11-7.4,18.1
			c0,14.1,11.4,25.5,25.5,25.5c7.1,0,13.4-2.9,18.1-7.5l34-34c4.7-4.6,7.5-11,7.5-18.1C153,453.7,141.7,442.2,127.5,442.2z
			 M297.6,102.1c14.1,0,25.5-11.4,25.5-25.5V25.5c0-14.1-11.4-25.5-25.5-25.5s-25.5,11.4-25.5,25.5v51
			C272.1,90.6,283.5,102.1,297.6,102.1z M467.7,153.1c7.1,0,13.4-2.9,18.1-7.4l34-34c4.7-4.7,7.5-11,7.5-18.1
			c0-14.1-11.4-25.5-25.5-25.5c-7.1,0-13.4,2.9-18.1,7.5l-34,34c-4.6,4.6-7.4,11-7.4,18.1C442.2,141.6,453.6,153.1,467.7,153.1z
			 M109.5,145.6c4.7,4.6,11,7.4,18.1,7.4c14.1,0,25.5-11.4,25.5-25.5c0-7.1-2.9-13.4-7.4-18.1l-34-34c-4.7-4.6-11-7.4-18.1-7.4
			C79.4,68.1,68,79.4,68,93.6c0,7.1,2.9,13.4,7.4,18.1L109.5,145.6z M569.7,272.1h-51c-14.1,0-25.5,11.4-25.5,25.5
			c0,14.1,11.4,25.5,25.5,25.5h51c14.1,0,25.5-11.4,25.5-25.5C595.2,283.5,583.8,272.1,569.7,272.1z M485.7,449.6
			c-4.7-4.6-11-7.4-18.1-7.4c-14.1,0-25.5,11.4-25.5,25.5c0,7.1,2.9,13.4,7.4,18.1l34,34c4.7,4.7,11,7.5,18.1,7.5
			c14.1,0,25.5-11.4,25.5-25.5c0-7.1-2.9-13.4-7.4-18.1L485.7,449.6z M297.6,493.2c-14.1,0-25.5,11.4-25.5,25.5v51
			c0,14.1,11.4,25.5,25.5,25.5s25.5-11.4,25.5-25.5v-51C323.1,504.7,311.7,493.2,297.6,493.2z M297.6,119.1
			c-98.4,0-178.6,80.1-178.6,178.6s80.1,178.6,178.6,178.6s178.6-80.1,178.6-178.6S396,119.1,297.6,119.1z M297.6,425.2
			C227.2,425.2,170,368,170,297.6s57.2-127.6,127.6-127.6s127.6,57.2,127.6,127.6S368,425.2,297.6,425.2z"/>
	</g>
</g>
</svg>
